<svg xmlns="http://www.w3.org/2000/svg" version="1.1" xmlns:xlink="http://www.w3.org/1999/xlink" xmlns:svgjs="http://svgjs.com/svgjs" width="1440" height="560" preserveAspectRatio="none" viewBox="0 0 1440 560"><g mask="url(&quot;#SvgjsMask1025&quot;)" fill="none"><rect width="1440" height="560" x="0" y="0" fill="#0e2a47"></rect><path d="M748.748,347.166C792.656,344.254,821.82,306.915,843.731,268.754C865.519,230.808,881.924,187.384,863.199,147.837C841.877,102.807,798.571,68.053,748.748,68.155C699.066,68.257,659.275,104.897,635.104,148.303C611.671,190.383,605.215,241.168,629.113,282.986C653.178,325.098,700.351,350.375,748.748,347.166" fill="rgba(28, 83, 142, 0.4)" class="triangle-float2"></path><path d="M366.346,232.5C394.611,230.129,411.742,204.699,426.117,180.247C440.78,155.304,456.641,126.967,443.557,101.16C429.596,73.624,397.132,60.037,366.346,62.353C338.892,64.419,321.41,88.017,306.939,111.439C291.324,136.711,273.17,165.308,286.257,191.977C300.384,220.765,334.391,235.18,366.346,232.5" fill="rgba(28, 83, 142, 0.4)" class="triangle-float2"></path><path d="M1154.144,262.46C1177.537,263.311,1200.16,251.115,1211.381,230.572C1222.203,210.76,1218.232,186.557,1205.948,167.617C1194.741,150.337,1174.732,142.899,1154.144,142.322C1132.265,141.709,1108.296,145.785,1097.059,164.568C1085.606,183.712,1092.453,207.384,1103.691,226.655C1114.825,245.749,1132.056,261.657,1154.144,262.46" fill="rgba(28, 83, 142, 0.4)" class="triangle-float3"></path><path d="M871.873,579.064C891.149,578.697,909.384,568.765,918.395,551.722C926.903,535.631,922.082,516.891,913.122,501.047C903.985,484.891,890.425,470.023,871.873,469.461C852.519,468.874,835.903,481.738,826.052,498.408C816.004,515.411,812.425,536.38,822.181,553.552C832.038,570.904,851.921,579.444,871.873,579.064" fill="rgba(28, 83, 142, 0.4)" class="triangle-float3"></path><path d="M1197.2526651440378 512.1613621136758L1338.6918557798626 631.0728205383381 1369.5132194948205 472.51065006087z" fill="rgba(28, 83, 142, 0.4)" class="triangle-float3"></path><path d="M35.3718645382955-21.33523415070227L23.078548869376256 95.6278514742005 140.04163449427904 107.92116714311976 152.33495016319827-9.04191848178303z" fill="rgba(28, 83, 142, 0.4)" class="triangle-float1"></path><path d="M190.52001447641067 406.99550413992137L62.03865032799942 320.3337297662848 103.85824010277409 535.4768682883326z" fill="rgba(28, 83, 142, 0.4)" class="triangle-float2"></path><path d="M184.879,594.705C216.437,597.614,253.23,591.904,268.066,563.899C282.433,536.778,262.195,506.586,245.042,481.136C230.543,459.624,210.816,440.999,184.879,440.477C158.109,439.938,133.222,455.138,120.372,478.628C107.998,501.249,112.074,528.136,124.599,550.674C137.554,573.985,158.323,592.257,184.879,594.705" fill="rgba(28, 83, 142, 0.4)" class="triangle-float1"></path><path d="M964.214,288.994C987.757,289.525,1006.979,272.146,1018.501,251.608C1029.746,231.565,1031.399,207.957,1021.244,187.34C1009.683,163.868,990.36,142.399,964.214,141.392C936.677,140.332,910.661,157.65,899.033,182.633C888.739,204.749,901.266,228.451,914.012,249.25C925.965,268.755,941.344,288.478,964.214,288.994" fill="rgba(28, 83, 142, 0.4)" class="triangle-float1"></path><path d="M776.2614121293079 385.44925151671134L705.006443058018 451.89558513796163 840.3034280255384 525.5548719342713z" fill="rgba(28, 83, 142, 0.4)" class="triangle-float3"></path><path d="M848.9826057491696 489.76159400638267L700.197299590177 420.38186632350835 630.8175719073026 569.167172482501 779.6028780662953 638.5469001653753z" fill="rgba(28, 83, 142, 0.4)" class="triangle-float1"></path><path d="M787.3501923731964 323.4094302806717L723.5297581332222 399.4676620670835 799.587989919634 463.2880963070577 863.4084241596081 387.2298645206459z" fill="rgba(28, 83, 142, 0.4)" class="triangle-float1"></path><path d="M553.049,364.283C583.576,363.577,608.306,341.991,623.058,315.256C637.259,289.52,638.589,259.327,625.483,233.017C610.671,203.282,586.231,176.297,553.049,174.715C517.571,173.023,484.136,194.067,467.575,225.488C451.977,255.083,459.654,290.145,477.196,318.631C493.781,345.563,521.428,365.014,553.049,364.283" fill="rgba(28, 83, 142, 0.4)" class="triangle-float1"></path><path d="M1049.807148180682 170.87789569491193L1029.3745637224742 259.38114232491205 1117.8778103524744 279.81372678311976 1138.310394810682 191.31048015311964z" fill="rgba(28, 83, 142, 0.4)" class="triangle-float2"></path><path d="M1329.0921390771102 54.45095066502757L1257.4274180734349-34.220263256945806 1220.0929286157514 58.18584077877595z" fill="rgba(28, 83, 142, 0.4)" class="triangle-float2"></path><path d="M1014.935,631.364C1062.254,633.429,1107.101,608.102,1130.927,567.167C1154.895,525.989,1155.439,474.047,1129.92,433.812C1105.963,396.04,1059.646,385.543,1014.935,384.287C967.168,382.945,912.001,385.591,888.19,427.022C864.424,468.375,890.101,517.224,915.242,557.756C938.578,595.379,970.704,629.434,1014.935,631.364" fill="rgba(28, 83, 142, 0.4)" class="triangle-float1"></path></g><defs><mask id="SvgjsMask1025"><rect width="1440" height="560" fill="#ffffff"></rect></mask><style>
            @keyframes float1 {
                0%{transform: translate(0, 0)}
                50%{transform: translate(-10px, 0)}
                100%{transform: translate(0, 0)}
            }

            .triangle-float1 {
                animation: float1 5s infinite;
            }

            @keyframes float2 {
                0%{transform: translate(0, 0)}
                50%{transform: translate(-5px, -5px)}
                100%{transform: translate(0, 0)}
            }

            .triangle-float2 {
                animation: float2 4s infinite;
            }

            @keyframes float3 {
                0%{transform: translate(0, 0)}
                50%{transform: translate(0, -10px)}
                100%{transform: translate(0, 0)}
            }

            .triangle-float3 {
                animation: float3 6s infinite;
            }
        </style></defs></svg>